@startuml
'https://plantuml.com/class-diagram

abstract class AuthenticationException
class UsernameNotFoundException
class AccountStatusException
class BadCredentialsException
class AccountExpiredException


AuthenticationException <|-- UsernameNotFoundException
AuthenticationException <|-- AccountStatusException
AccountStatusException <|-- AccountExpiredException
AuthenticationException <|-- BadCredentialsException

@enduml